<svg xmlns="http://www.w3.org/2000/svg" version="1.1" xmlns:xlink="http://www.w3.org/1999/xlink" xmlns:svgjs="http://svgjs.com/svgjs" width="1440" height="560" preserveAspectRatio="none" viewBox="0 0 1440 560"><g mask="url(&quot;#SvgjsMask1006&quot;)" fill="none"><rect width="1440" height="560" x="0" y="0" fill="rgba(94, 9, 35, 1)"></rect><path d="M 0,212 C 57.6,172.2 172.8,16.6 288,13 C 403.2,9.4 460.8,189.6 576,194 C 691.2,198.4 748.8,42.4 864,35 C 979.2,27.6 1036.8,143 1152,157 C 1267.2,171 1382.4,115.4 1440,105L1440 560L0 560z" fill="rgba(129, 64, 84, 1)"></path><path d="M 0,357 C 96,381.4 288,488.6 480,479 C 672,469.4 768,293.2 960,309 C 1152,324.8 1344,508.2 1440,558L1440 560L0 560z" fill="rgba(147, 91, 108, 1)"></path></g><defs><mask id="SvgjsMask1006"><rect width="1440" height="560" fill="#ffffff"></rect></mask></defs></svg>